<mxfile host="app.diagrams.net" modified="2020-11-27T06:07:15.183Z" agent="5.0 (Windows NT 6.1; Win64; x64) AppleWebKit/537.36 (KHTML, like Gecko) Chrome/86.0.4240.198 Safari/537.36" etag="20HQQeBL0MmTAARjfKJa" version="13.10.3" type="github">
  <diagram id="f9NyfckiiJossvdt055z" name="Page-1">
    <mxGraphModel dx="868" dy="425" grid="1" gridSize="10" guides="1" tooltips="1" connect="1" arrows="1" fold="1" page="1" pageScale="1" pageWidth="1169" pageHeight="827" math="0" shadow="0">
      <root>
        <mxCell id="0" />
        <mxCell id="1" parent="0" />
        <mxCell id="be0HQfdEvNLFxTAmw1J4-7" style="edgeStyle=orthogonalEdgeStyle;rounded=0;orthogonalLoop=1;jettySize=auto;html=1;exitX=1;exitY=0.5;exitDx=0;exitDy=0;entryX=0;entryY=0.5;entryDx=0;entryDy=0;" parent="1" source="be0HQfdEvNLFxTAmw1J4-8" target="be0HQfdEvNLFxTAmw1J4-9" edge="1">
          <mxGeometry relative="1" as="geometry" />
        </mxCell>
        <mxCell id="be0HQfdEvNLFxTAmw1J4-8" value="&lt;b&gt;&lt;font style=&quot;font-size: 18px&quot;&gt;网格化组分&lt;br&gt;排放量&lt;/font&gt;&lt;/b&gt;" style="rounded=1;whiteSpace=wrap;html=1;fillColor=#FFCCCC;" parent="1" vertex="1">
          <mxGeometry x="530" y="240" width="120" height="60" as="geometry" />
        </mxCell>
        <mxCell id="be0HQfdEvNLFxTAmw1J4-9" value="&lt;b&gt;&lt;font style=&quot;font-size: 18px&quot;&gt;固定污染物&lt;br&gt;组分排放清单&lt;/font&gt;&lt;/b&gt;" style="rounded=1;whiteSpace=wrap;html=1;fillColor=#FFCC99;" parent="1" vertex="1">
          <mxGeometry x="690" y="240" width="120" height="60" as="geometry" />
        </mxCell>
        <mxCell id="vMmDM5BzYwOUbOcyWYG_-15" style="edgeStyle=orthogonalEdgeStyle;rounded=0;orthogonalLoop=1;jettySize=auto;html=1;exitX=0.5;exitY=1;exitDx=0;exitDy=0;" edge="1" parent="1" source="be0HQfdEvNLFxTAmw1J4-10" target="vMmDM5BzYwOUbOcyWYG_-13">
          <mxGeometry relative="1" as="geometry" />
        </mxCell>
        <mxCell id="vMmDM5BzYwOUbOcyWYG_-16" style="edgeStyle=orthogonalEdgeStyle;rounded=0;orthogonalLoop=1;jettySize=auto;html=1;exitX=0.5;exitY=1;exitDx=0;exitDy=0;entryX=0.5;entryY=0;entryDx=0;entryDy=0;" edge="1" parent="1" source="be0HQfdEvNLFxTAmw1J4-10" target="vMmDM5BzYwOUbOcyWYG_-14">
          <mxGeometry relative="1" as="geometry" />
        </mxCell>
        <mxCell id="be0HQfdEvNLFxTAmw1J4-10" value="&lt;span style=&quot;font-size: 18px&quot;&gt;&lt;b&gt;固定污染源基础数据&lt;/b&gt;&lt;/span&gt;" style="rounded=1;whiteSpace=wrap;html=1;fillColor=#CCFFFF;" parent="1" vertex="1">
          <mxGeometry x="340" y="40" width="170" height="60" as="geometry" />
        </mxCell>
        <mxCell id="vMmDM5BzYwOUbOcyWYG_-2" style="edgeStyle=orthogonalEdgeStyle;rounded=0;orthogonalLoop=1;jettySize=auto;html=1;exitX=1;exitY=0.5;exitDx=0;exitDy=0;entryX=0;entryY=0.5;entryDx=0;entryDy=0;" edge="1" parent="1" target="vMmDM5BzYwOUbOcyWYG_-4">
          <mxGeometry relative="1" as="geometry">
            <mxPoint x="147" y="270" as="sourcePoint" />
          </mxGeometry>
        </mxCell>
        <mxCell id="vMmDM5BzYwOUbOcyWYG_-3" style="edgeStyle=orthogonalEdgeStyle;rounded=0;orthogonalLoop=1;jettySize=auto;html=1;exitX=1;exitY=0.5;exitDx=0;exitDy=0;entryX=0;entryY=0.5;entryDx=0;entryDy=0;" edge="1" parent="1" source="vMmDM5BzYwOUbOcyWYG_-4" target="vMmDM5BzYwOUbOcyWYG_-10">
          <mxGeometry relative="1" as="geometry" />
        </mxCell>
        <mxCell id="vMmDM5BzYwOUbOcyWYG_-4" value="&lt;font style=&quot;font-size: 18px&quot;&gt;&lt;b&gt;细化网格数据&lt;/b&gt;&lt;/font&gt;" style="rounded=1;whiteSpace=wrap;html=1;fontSize=12;glass=0;strokeWidth=1;shadow=0;fillColor=#FFCCCC;" vertex="1" parent="1">
          <mxGeometry x="210" y="250" width="120" height="40" as="geometry" />
        </mxCell>
        <mxCell id="vMmDM5BzYwOUbOcyWYG_-7" value="&lt;font style=&quot;font-size: 18px&quot;&gt;&lt;b&gt;制作细化网格&lt;/b&gt;&lt;/font&gt;" style="shape=process;whiteSpace=wrap;html=1;backgroundOutline=1;fillColor=#FFCCCC;" vertex="1" parent="1">
          <mxGeometry x="50" y="240" width="120" height="60" as="geometry" />
        </mxCell>
        <mxCell id="vMmDM5BzYwOUbOcyWYG_-11" style="edgeStyle=orthogonalEdgeStyle;rounded=0;orthogonalLoop=1;jettySize=auto;html=1;exitX=0.5;exitY=1;exitDx=0;exitDy=0;entryX=0.5;entryY=0;entryDx=0;entryDy=0;" edge="1" parent="1" source="vMmDM5BzYwOUbOcyWYG_-9" target="vMmDM5BzYwOUbOcyWYG_-7">
          <mxGeometry relative="1" as="geometry" />
        </mxCell>
        <mxCell id="vMmDM5BzYwOUbOcyWYG_-9" value="&lt;font style=&quot;font-size: 18px&quot;&gt;&lt;b&gt;空间地图数据&lt;/b&gt;&lt;/font&gt;" style="rounded=1;whiteSpace=wrap;html=1;fontSize=12;glass=0;strokeWidth=1;shadow=0;fillColor=#FFCCCC;" vertex="1" parent="1">
          <mxGeometry x="50" y="160" width="120" height="40" as="geometry" />
        </mxCell>
        <mxCell id="vMmDM5BzYwOUbOcyWYG_-12" style="edgeStyle=orthogonalEdgeStyle;rounded=0;orthogonalLoop=1;jettySize=auto;html=1;exitX=1;exitY=0.5;exitDx=0;exitDy=0;entryX=0;entryY=0.5;entryDx=0;entryDy=0;" edge="1" parent="1" source="vMmDM5BzYwOUbOcyWYG_-10" target="be0HQfdEvNLFxTAmw1J4-8">
          <mxGeometry relative="1" as="geometry" />
        </mxCell>
        <mxCell id="vMmDM5BzYwOUbOcyWYG_-10" value="&lt;b style=&quot;font-size: 18px&quot;&gt;归档细化网格&lt;/b&gt;" style="shape=process;whiteSpace=wrap;html=1;backgroundOutline=1;fillColor=#FFCCCC;" vertex="1" parent="1">
          <mxGeometry x="367" y="240" width="120" height="60" as="geometry" />
        </mxCell>
        <mxCell id="vMmDM5BzYwOUbOcyWYG_-17" style="edgeStyle=orthogonalEdgeStyle;rounded=0;orthogonalLoop=1;jettySize=auto;html=1;exitX=0.5;exitY=1;exitDx=0;exitDy=0;entryX=0.5;entryY=0;entryDx=0;entryDy=0;" edge="1" parent="1" source="vMmDM5BzYwOUbOcyWYG_-13" target="vMmDM5BzYwOUbOcyWYG_-10">
          <mxGeometry relative="1" as="geometry" />
        </mxCell>
        <mxCell id="vMmDM5BzYwOUbOcyWYG_-13" value="&lt;b&gt;&lt;font style=&quot;font-size: 18px&quot;&gt;计算点源&lt;br&gt;排放量&lt;/font&gt;&lt;/b&gt;" style="shape=process;whiteSpace=wrap;html=1;backgroundOutline=1;fillColor=#CCFFFF;" vertex="1" parent="1">
          <mxGeometry x="290" y="140" width="120" height="60" as="geometry" />
        </mxCell>
        <mxCell id="vMmDM5BzYwOUbOcyWYG_-18" style="edgeStyle=orthogonalEdgeStyle;rounded=0;orthogonalLoop=1;jettySize=auto;html=1;exitX=0.5;exitY=1;exitDx=0;exitDy=0;entryX=0.5;entryY=0;entryDx=0;entryDy=0;" edge="1" parent="1" source="vMmDM5BzYwOUbOcyWYG_-14" target="vMmDM5BzYwOUbOcyWYG_-10">
          <mxGeometry relative="1" as="geometry" />
        </mxCell>
        <mxCell id="vMmDM5BzYwOUbOcyWYG_-14" value="&lt;b&gt;&lt;font style=&quot;font-size: 18px&quot;&gt;计算面源&lt;br&gt;排放量&lt;/font&gt;&lt;/b&gt;" style="shape=process;whiteSpace=wrap;html=1;backgroundOutline=1;fillColor=#CCFFFF;" vertex="1" parent="1">
          <mxGeometry x="450" y="140" width="120" height="60" as="geometry" />
        </mxCell>
      </root>
    </mxGraphModel>
  </diagram>
</mxfile>
